<svg viewBox="0,0,975,294" width="975" height="294" xmlns="http://www.w3.org/2000/svg" xmlns:xlink="http://www.w3.org/1999/xlink"><g transform="translate(0,20)" fill="none" font-size="10" font-family="sans-serif" text-anchor="middle"><g class="tick" opacity="1" transform="translate(110.5,0)"><line stroke="currentColor" y2="-6"/><line stroke="currentColor" y2="284" stroke-opacity="0.1"/><text fill="currentColor" y="-9" dy="0em">0%</text></g><g class="tick" opacity="1" transform="translate(160.5,0)"><line stroke="currentColor" y2="-6"/><line stroke="currentColor" y2="284" stroke-opacity="0.1"/><text fill="currentColor" y="-9" dy="0em">2%</text></g><g class="tick" opacity="1" transform="translate(211.5,0)"><line stroke="currentColor" y2="-6"/><line stroke="currentColor" y2="284" stroke-opacity="0.1"/><text fill="currentColor" y="-9" dy="0em">4%</text></g><g class="tick" opacity="1" transform="translate(261.5,0)"><line stroke="currentColor" y2="-6"/><line stroke="currentColor" y2="284" stroke-opacity="0.1"/><text fill="currentColor" y="-9" dy="0em">6%</text></g><g class="tick" opacity="1" transform="translate(311.5,0)"><line stroke="currentColor" y2="-6"/><line stroke="currentColor" y2="284" stroke-opacity="0.1"/><text fill="currentColor" y="-9" dy="0em">8%</text></g><g class="tick" opacity="1" transform="translate(362.5,0)"><line stroke="currentColor" y2="-6"/><line stroke="currentColor" y2="284" stroke-opacity="0.1"/><text fill="currentColor" y="-9" dy="0em">10%</text></g><g class="tick" opacity="1" transform="translate(412.5,0)"><line stroke="currentColor" y2="-6"/><line stroke="currentColor" y2="284" stroke-opacity="0.1"/><text fill="currentColor" y="-9" dy="0em">12%</text></g><g class="tick" opacity="1" transform="translate(462.5,0)"><line stroke="currentColor" y2="-6"/><line stroke="currentColor" y2="284" stroke-opacity="0.1"/><text fill="currentColor" y="-9" dy="0em">14%</text></g><g class="tick" opacity="1" transform="translate(513.5,0)"><line stroke="currentColor" y2="-6"/><line stroke="currentColor" y2="284" stroke-opacity="0.1"/><text fill="currentColor" y="-9" dy="0em">16%</text></g><g class="tick" opacity="1" transform="translate(563.5,0)"><line stroke="currentColor" y2="-6"/><line stroke="currentColor" y2="284" stroke-opacity="0.1"/><text fill="currentColor" y="-9" dy="0em">18%</text></g><g class="tick" opacity="1" transform="translate(613.5,0)"><line stroke="currentColor" y2="-6"/><line stroke="currentColor" y2="284" stroke-opacity="0.1"/><text fill="currentColor" y="-9" dy="0em">20%</text></g><g class="tick" opacity="1" transform="translate(664.5,0)"><line stroke="currentColor" y2="-6"/><line stroke="currentColor" y2="284" stroke-opacity="0.1"/><text fill="currentColor" y="-9" dy="0em">22%</text></g><g class="tick" opacity="1" transform="translate(714.5,0)"><line stroke="currentColor" y2="-6"/><line stroke="currentColor" y2="284" stroke-opacity="0.1"/><text fill="currentColor" y="-9" dy="0em">24%</text></g><g class="tick" opacity="1" transform="translate(764.5,0)"><line stroke="currentColor" y2="-6"/><line stroke="currentColor" y2="284" stroke-opacity="0.1"/><text fill="currentColor" y="-9" dy="0em">26%</text></g><g class="tick" opacity="1" transform="translate(815.5,0)"><line stroke="currentColor" y2="-6"/><line stroke="currentColor" y2="284" stroke-opacity="0.1"/><text fill="currentColor" y="-9" dy="0em">28%</text></g><g class="tick" opacity="1" transform="translate(865.5,0)"><line stroke="currentColor" y2="-6"/><line stroke="currentColor" y2="284" stroke-opacity="0.1"/><text fill="currentColor" y="-9" dy="0em">30%</text></g></g><g text-anchor="end" style="font: 10px sans-serif;"><g transform="translate(0, 42.000237861540334)"><line stroke="#aaa" x1="626" x2="846"/><g><circle cx="846" fill="rgb(66, 136, 181)" r="4.5"/><circle cx="626" fill="rgb(209, 60, 75)" r="4.5"/></g><text dy="0.35em" x="618">Univ.-Prof./Wissensch.</text><text dy="0.35em" text-anchor="start" x="854" fill="rgb(66, 136, 181)">+8.7%</text></g><g transform="translate(0,59)"><line stroke="#aaa" x1="236" x2="446"/><g><circle cx="446" fill="rgb(66, 136, 181)" r="4.5"/><circle cx="236" fill="rgb(209, 60, 75)" r="4.5"/></g><text dy="0.35em" x="228">Buchgewerbe</text><text dy="0.35em" text-anchor="start" x="454" fill="rgb(66, 136, 181)">+8.4%</text></g><g transform="translate(0,76)"><line stroke="#aaa" x1="246" x2="435"/><g><circle cx="435" fill="rgb(66, 136, 181)" r="4.5"/><circle cx="246" fill="rgb(209, 60, 75)" r="4.5"/></g><text dy="0.35em" x="238">Verwaltungsbeamter</text><text dy="0.35em" text-anchor="start" x="443" fill="rgb(66, 136, 181)">+7.5%</text></g><g transform="translate(0,93)"><line stroke="#aaa" x1="354" x2="413"/><g><circle cx="413" fill="rgb(66, 136, 181)" r="4.5"/><circle cx="354" fill="rgb(209, 60, 75)" r="4.5"/></g><text dy="0.35em" x="346">Magistrat/Staatsmann</text><text dy="0.35em" text-anchor="start" x="421" fill="rgb(66, 136, 181)">+2.3%</text></g><g transform="translate(0,110)"><line stroke="#aaa" x1="346" x2="673"/><g><circle cx="346" fill="rgb(66, 136, 181)" r="4.5"/><circle cx="673" fill="rgb(209, 60, 75)" r="4.5"/></g><text dy="0.35em" x="338">Arzt</text><text dy="0.35em" text-anchor="start" x="681" fill="rgb(209, 60, 75)">+13.0%</text></g><g transform="translate(0,127)"><line stroke="#aaa" x1="234" x2="296"/><g><circle cx="296" fill="rgb(66, 136, 181)" r="4.5"/><circle cx="234" fill="rgb(209, 60, 75)" r="4.5"/></g><text dy="0.35em" x="226">Student</text><text dy="0.35em" text-anchor="start" x="304" fill="rgb(66, 136, 181)">+2.5%</text></g><g transform="translate(0,144)"><line stroke="#aaa" x1="110" x2="186"/><g><circle cx="186" fill="rgb(66, 136, 181)" r="4.5"/><circle cx="110" fill="rgb(209, 60, 75)" r="4.5"/></g><text dy="0.35em" x="102">Dienstpersonal</text><text dy="0.35em" text-anchor="start" x="194" fill="rgb(66, 136, 181)">+3.0%</text></g><g transform="translate(0,161)"><line stroke="#aaa" x1="180" x2="193"/><g><circle cx="180" fill="rgb(66, 136, 181)" r="4.5"/><circle cx="193" fill="rgb(209, 60, 75)" r="4.5"/></g><text dy="0.35em" x="172">Familie</text><text dy="0.35em" text-anchor="start" x="201" fill="rgb(209, 60, 75)">+0.5%</text></g><g transform="translate(0,178)"><line stroke="#aaa" x1="168" x2="252"/><g><circle cx="168" fill="rgb(66, 136, 181)" r="4.5"/><circle cx="252" fill="rgb(209, 60, 75)" r="4.5"/></g><text dy="0.35em" x="160">Geistlicher</text><text dy="0.35em" text-anchor="start" x="260" fill="rgb(209, 60, 75)">+3.3%</text></g><g transform="translate(0,195)"><line stroke="#aaa" x1="146" x2="183"/><g><circle cx="146" fill="rgb(66, 136, 181)" r="4.5"/><circle cx="183" fill="rgb(209, 60, 75)" r="4.5"/></g><text dy="0.35em" x="138">Chirurg/Apotheker</text><text dy="0.35em" text-anchor="start" x="191" fill="rgb(209, 60, 75)">+1.5%</text></g><g transform="translate(0,212)"><line stroke="#aaa" x1="126" x2="157"/><g><circle cx="126" fill="rgb(66, 136, 181)" r="4.5"/><circle cx="157" fill="rgb(209, 60, 75)" r="4.5"/></g><text dy="0.35em" x="118">Militär</text><text dy="0.35em" text-anchor="start" x="165" fill="rgb(209, 60, 75)">+1.3%</text></g><g transform="translate(0,229)"><line stroke="#aaa" x1="119" x2="313"/><g><circle cx="119" fill="rgb(66, 136, 181)" r="4.5"/><circle cx="313" fill="rgb(209, 60, 75)" r="4.5"/></g><text dy="0.35em" x="111">Schulmann</text><text dy="0.35em" text-anchor="start" x="321" fill="rgb(209, 60, 75)">+7.7%</text></g><g transform="translate(0,246)"><line stroke="#aaa" x1="110" x2="234"/><g><circle cx="110" fill="rgb(66, 136, 181)" r="4.5"/><circle cx="234" fill="rgb(209, 60, 75)" r="4.5"/></g><text dy="0.35em" x="102">Privatier</text><text dy="0.35em" text-anchor="start" x="242" fill="rgb(209, 60, 75)">+4.9%</text></g><g transform="translate(0,263)"><line stroke="#aaa" x1="240" x2="246"/><g><circle cx="240" fill="rgb(66, 136, 181)" r="4.5"/><circle cx="246" fill="rgb(209, 60, 75)" r="4.5"/></g><text dy="0.35em" x="232">Varia</text><text dy="0.35em" text-anchor="start" x="254" fill="rgb(209, 60, 75)">+0.2%</text></g></g><g font-family="sans-serif" font-size="10" text-anchor="end" transform="translate(975,20)"><g transform="translate(0,0)"><circle cx="-10" cy="10" r="8" fill="rgb(209, 60, 75)"/><text x="-24" y="9.5" dy="0.35em">Haller</text></g><g transform="translate(0,20)"><circle cx="-10" cy="10" r="8" fill="rgb(66, 136, 181)"/><text x="-24" y="9.5" dy="0.35em">Münchhausen</text></g></g></svg>